<?xml version="1.0" encoding="utf-8"?>
<!-- Generator: Adobe Illustrator 15.0.0, SVG Export Plug-In . SVG Version: 6.00 Build 0)  -->
<!DOCTYPE svg PUBLIC "-//W3C//DTD SVG 1.1//EN" "http://www.w3.org/Graphics/SVG/1.1/DTD/svg11.dtd">
<svg version="1.1" id="Layer_1" xmlns="http://www.w3.org/2000/svg" xmlns:xlink="http://www.w3.org/1999/xlink" x="0px" y="0px"
	 width="100px" height="90.217px" viewBox="0 0 100 90.217" enable-background="new 0 0 100 90.217" xml:space="preserve">
<path d="M99.803,62.647c0,13.54-7.286,26.88-22.254,26.88c-5.416,0-17.23-2.559-17.23-12.505c0-11.913,8.959-16.346,14.375-17.823
	c5.416-1.477,15.066-2.067,16.148-3.249s-3.348-30.426-5.415-31.51c-2.068-1.083-14.376,0.196-24.124,1.773
	c-9.748,1.575-22.648,4.727-23.535,6.499s4.923,20.973,4.923,33.183c0,12.211-13.981,24.322-24.32,24.322
	c-8.075,0-18.479-4.573-18.167-13.735c0.641-18.759,31.829-19.316,31.829-19.316s-0.935-7.4-2.437-16.542
	c-1.435-8.729-5.907-24.356-5.12-26.324c0.788-1.971,14.77-11.423,33.577-13.294C76.86-0.866,85.132,0.216,86.707,1.496
	c1.575,1.281,8.369,22.746,10.535,35.746C99.409,50.24,99.803,57.428,99.803,62.647z"/>
<rect x="280.5" y="47.609" fill="none" width="356" height="171"/>
<text transform="matrix(1 0 0 1 280.5 56.1282)" font-family="'MyriadPro-Regular'" font-size="12">Designed by Ryan Oksenhorn</text>
</svg>
