<?xml version="1.0" encoding="UTF-8" standalone="no"?>
<!-- Created with Inkscape (http://www.inkscape.org/) -->
<svg id="svg6218" xmlns="http://www.w3.org/2000/svg" height="64" width="240" version="1.0">
 <g id="layer1">
  <path id="path13406" style="color:black" d="m26-23.5a14 14 0 1 1 -28 0 14 14 0 1 1 28 0z" stroke-linecap="round" transform="matrix(.88784 0 0 .88784 43.96 67.233)" stroke="#676767" stroke-width=".56972" fill="#fff"/>
  <path id="text13438" d="m44.69 51.485v-8.5h6.302v1.438h-4.586v1.884h4.267v1.432h-4.267v2.314h4.748v1.432h-6.464zm9.137 0l-2.029-8.5h1.757l1.281 5.839 1.554-5.839h2.04l1.49 5.937 1.305-5.937h1.728l-2.064 8.5h-1.821l-1.693-6.355-1.687 6.355h-1.861z" transform="scale(1.0147 .98549)" fill="#333"/>
  <path id="path13412" style="color:black" d="m26-23.5a14 14 0 1 1 -28 0 14 14 0 1 1 28 0z" stroke-linecap="round" transform="matrix(.88784 0 0 .88784 139.06 67.233)" stroke="#676767" stroke-width=".56972" fill="#fff"/>
  <path id="text13426" d="m142.8 51.485l-3.04-8.5h1.86l2.15 6.291 2.08-6.291h1.82l-3.04 8.5h-1.83zm5.75-8.5h1.71v4.604c0 0.73 0.03 1.204 0.07 1.42 0.07 0.348 0.25 0.627 0.52 0.838 0.28 0.21 0.66 0.316 1.14 0.316s0.85-0.1 1.1-0.299 0.39-0.443 0.44-0.733 0.08-0.771 0.08-1.444v-4.702h1.72v4.464c0 1.021-0.05 1.742-0.14 2.163-0.1 0.421-0.27 0.777-0.52 1.067s-0.58 0.521-1 0.693c-0.41 0.172-0.96 0.258-1.63 0.258-0.81 0-1.43-0.094-1.85-0.282-0.42-0.187-0.75-0.431-0.99-0.73-0.25-0.3-0.41-0.614-0.48-0.942-0.12-0.487-0.17-1.206-0.17-2.157v-4.534z" transform="scale(1.0147 .98549)" fill="#333"/>
  <path id="path13410" style="color:black" d="m26-23.5a14 14 0 1 1 -28 0 14 14 0 1 1 28 0z" stroke-linecap="round" transform="matrix(.88784 0 0 .88784 107.36 67.233)" stroke="#676767" stroke-width=".56982" fill="#fff"/>
  <path id="text13430" d="m108.96 51.485v-8.5h6.3v1.438h-4.59v1.884h4.27v1.432h-4.27v2.314h4.75v1.432h-6.46zm7.95 0v-8.5h1.66l3.48 5.676v-5.676h1.6v8.5h-1.72l-3.43-5.543v5.543h-1.59z" transform="scale(1.0147 .98549)" fill="#333"/>
  <path id="path13408" style="color:black" d="m26-23.5a14 14 0 1 1 -28 0 14 14 0 1 1 28 0z" stroke-linecap="round" transform="matrix(.88784 0 0 .88784 75.66 67.233)" stroke="#676767" stroke-width=".56972" fill="#fff"/>
  <path id="text13442" d="m82.537 48.36l1.664 0.527c-0.255 0.928-0.679 1.617-1.273 2.067-0.593 0.45-1.346 0.676-2.258 0.676-1.129 0-2.056-0.386-2.783-1.157-0.726-0.771-1.09-1.825-1.09-3.163 0-1.414 0.366-2.513 1.096-3.296 0.731-0.782 1.691-1.174 2.881-1.174 1.04 0 1.885 0.308 2.534 0.922 0.387 0.364 0.676 0.885 0.87 1.566l-1.699 0.405c-0.101-0.44-0.31-0.788-0.629-1.043s-0.706-0.383-1.163-0.383c-0.63 0-1.141 0.226-1.533 0.678-0.392 0.453-0.588 1.185-0.588 2.198 0 1.074 0.193 1.84 0.579 2.296 0.387 0.456 0.889 0.684 1.508 0.684 0.456 0 0.848-0.145 1.177-0.435 0.328-0.29 0.564-0.746 0.707-1.368zm3.148 3.125v-8.5h3.612c0.908 0 1.568 0.077 1.98 0.229 0.412 0.153 0.741 0.424 0.988 0.815 0.248 0.39 0.371 0.837 0.371 1.339 0 0.638-0.187 1.164-0.562 1.58-0.375 0.415-0.935 0.677-1.681 0.786 0.371 0.216 0.677 0.454 0.919 0.713 0.241 0.259 0.567 0.719 0.977 1.38l1.037 1.658h-2.052l-1.241-1.85c-0.44-0.661-0.742-1.077-0.904-1.249s-0.334-0.29-0.516-0.354-0.47-0.096-0.864-0.096h-0.348v3.549h-1.716zm1.716-4.905h1.27c0.823 0 1.337-0.035 1.542-0.105 0.205-0.069 0.365-0.189 0.481-0.359s0.174-0.383 0.174-0.638c0-0.286-0.076-0.517-0.229-0.693-0.153-0.175-0.368-0.287-0.646-0.333-0.139-0.019-0.557-0.029-1.253-0.029h-1.339v2.157z" transform="scale(1.0147 .98549)" fill="#333"/>
  <path id="path13404" style="color:black" d="m26-23.5a14 14 0 1 1 -28 0 14 14 0 1 1 28 0z" stroke-linecap="round" transform="matrix(.88784 0 0 .88784 12.259 67.233)" stroke="#676767" stroke-width=".56972" fill="#fff"/>
  <path id="text13434" d="m15.096 51.485v-8.5h6.302v1.438h-4.586v1.884h4.267v1.432h-4.267v2.314h4.748v1.432h-6.464zm7.067 0l2.905-4.436-2.632-4.064h2.006l1.704 2.731 1.67-2.731h1.989l-2.644 4.128 2.905 4.372h-2.07l-1.884-2.94-1.89 2.94h-2.059z" transform="scale(1.0147 .98549)" fill="#333"/>
  <text id="text8575" style="text-anchor:end;text-align:end" xml:space="preserve" transform="scale(1.0147 .98549)" line-height="125%" font-size="10.848px" y="20.811575" x="22.188875" font-family="Bitstream Vera Sans" fill="#333"><tspan id="tspan8579" y="20.811575" x="22.188875" style="text-anchor:middle;text-align:center" fill="#333">Extinct</tspan></text>
  <path id="JasmineUPC_bracket" d="m85.175 29.578c-3.291 0-5.878 0.229-7.762 0.686s-3.211 1.227-3.981 2.31c0-1.491 0.525-2.636 1.573-3.436 1.048-0.799 2.687-1.353 4.916-1.661s5.228-0.462 8.996-0.462h17.273c2.31 0 4.14-0.065 5.5-0.194 1.35-0.129 2.57-0.432 3.66-0.909 1.38-0.755 2.13-1.426 2.27-2.012 0.66 0.983 1.91 1.758 3.74 2.325 1.75 0.526 4.36 0.79 7.84 0.79h19.55c5.59 0 9.3 0.467 11.1 1.401 1.83 0.894 2.75 2.28 2.75 4.158-0.98-1.133-2.36-1.915-4.12-2.348-1.77-0.432-4.29-0.648-7.59-0.648h-19.9c-3.93 0-6.93-0.231-9.01-0.693-2.09-0.462-3.54-1.349-4.36-2.66-0.77 1.351-2.27 2.248-4.48 2.69-2.22 0.442-5.45 0.663-9.69 0.663h-18.275z" fill="#333"/>
  <text id="text2194" style="text-anchor:end;text-align:end" xml:space="preserve" transform="scale(1.0147 .98549)" line-height="125%" font-size="10.848px" y="20.811563" x="116.56983" font-family="Bitstream Vera Sans" fill="#333"><tspan id="tspan2202" y="20.811563" x="116.56983" style="text-anchor:middle;text-align:center" fill="#333">Threatened</tspan></text>
  <path id="path1914" d="m213.12 23.572v7.178" fill-rule="evenodd" stroke="#333" stroke-width="1px" fill="#333"/>
  <path id="path1917" d="m22.913 23.572v7.178" fill-rule="evenodd" stroke="#333" stroke-width="1px" fill="#333"/>
  <path id="path13414" style="color:black" d="m26-23.5a14 14 0 1 1 -28 0 14 14 0 1 1 28 0z" stroke-linecap="round" transform="matrix(.88784 0 0 .88784 170.76 67.233)" stroke="#676767" stroke-width=".56972" fill="#fff"/>
  <path id="text1899" d="m171.76 51.485v-8.5h1.67l3.48 5.676v-5.676h1.59v8.5h-1.72l-3.42-5.543v5.543h-1.6zm10.48 0v-7.062h-2.52v-1.438h6.75v1.438h-2.52v7.062h-1.71z" transform="scale(1.0147 .98549)" fill="#333"/>
  <g id="g3041" transform="translate(4.9472 6.2732)" font-family="Bitstream Vera Sans" fill="#333">
   <text id="text2145" style="text-anchor:end;text-align:end" xml:space="preserve" transform="scale(1.0147 .98549)" line-height="125%" font-size="10.848px" y="6.4210806" x="204.6432"><tspan id="tspan3029" y="6.4210806" x="204.6432" style="text-anchor:middle;text-align:center" fill="#333">Least</tspan></text>
   <text id="text3037" style="text-anchor:end;text-align:end" xml:space="preserve" transform="scale(1.0147 .98549)" line-height="125%" font-size="10.848px" y="14.440681" x="205.1093"><tspan id="tspan3039" y="14.440681" x="205.1093" style="text-anchor:middle;text-align:center" fill="#333">Concern</tspan></text>
  </g>
  <path id="path2072" style="color:black" d="m225.55 46.369c0 6.865-5.57 12.43-12.43 12.43-6.87 0-12.43-5.565-12.43-12.43s5.56-12.43 12.43-12.43c6.86 0 12.43 5.565 12.43 12.43v0z" stroke="#676767" stroke-linecap="round" stroke-width=".50582" fill="#066"/>
  <path id="text3021" d="m205.85 50.738v-8.308h1.75v6.896h4.33v1.412h-6.08zm12.84-3.08l1.69 0.52c-0.26 0.914-0.69 1.593-1.29 2.037-0.6 0.443-1.37 0.665-2.29 0.665-1.15 0-2.09-0.38-2.83-1.14-0.73-0.759-1.1-1.798-1.1-3.116 0-1.394 0.37-2.477 1.11-3.248 0.74-0.772 1.71-1.157 2.92-1.157 1.06 0 1.91 0.302 2.57 0.908 0.4 0.358 0.69 0.872 0.89 1.543l-1.73 0.4c-0.1-0.435-0.31-0.777-0.64-1.029-0.32-0.251-0.71-0.377-1.18-0.377-0.64 0-1.15 0.223-1.55 0.669-0.4 0.445-0.6 1.167-0.6 2.165 0 1.059 0.2 1.813 0.59 2.263 0.39 0.449 0.9 0.674 1.53 0.674 0.46 0 0.86-0.143 1.19-0.429 0.34-0.285 0.58-0.735 0.72-1.348z" fill="#fff"/>
 </g>
</svg>
