<?xml version="1.0" encoding="utf-8"?>
<!-- Generator: Adobe Illustrator 15.0.0, SVG Export Plug-In . SVG Version: 6.00 Build 0)  -->
<!DOCTYPE svg PUBLIC "-//W3C//DTD SVG 1.1//EN" "http://www.w3.org/Graphics/SVG/1.1/DTD/svg11.dtd">
<svg version="1.1" id="Layer_1" xmlns="http://www.w3.org/2000/svg" xmlns:xlink="http://www.w3.org/1999/xlink" x="0px" y="0px"
	 width="100px" height="100px" viewBox="0 0 100 100" enable-background="new 0 0 100 100" xml:space="preserve">
<path d="M39.625,6.019c0.018,0,0.037,0,0.055,0c1.637,0.008,6.371,0.01,12.162,0.01c11.584,0,27.393-0.01,31.074-0.01
	c3.021,0,8.422,1.575,8.422,7.712s0,43.718,0,57.27c0,10.899-3.229,14.36-12.311,16.724c-1.185,0.308-3.07,0.566-5.232,0.566
	c-6.479,0-15.436-2.336-15.436-12.706c0-9.875,9.971-11.112,14.973-11.112c1.672,0,2.791,0.139,2.791,0.139
	c0.146,0.02,0.293,0.027,0.436,0.027c1.769,0,3.148-1.356,3.148-3.193V20.986c0-1.987-1.625-3.612-3.613-3.612H45.35
	c-1.987,0-3.613,1.625-3.613,3.612c0,0,0,43.551,0,56.362c0,10.324-6.001,15.178-11.709,16.039c-1.26,0.189-3.444,0.479-5.951,0.479
	c-6.464,0-15.063-1.931-15.409-12.481C8.337,71.32,18.475,70.059,23.583,70.059c1.712,0,2.86,0.141,2.86,0.141
	c0.147,0.02,0.293,0.027,0.436,0.027c1.768,0,3.149-1.357,3.149-3.196V18.48c0-1.987,0.49-5.162,1.089-7.056
	C31.117,11.423,32.827,6.019,39.625,6.019 M39.625-0.001L39.625-0.001c-8.848,0-13.119,6.04-14.248,9.608
	c-0.781,2.468-1.371,6.282-1.371,8.872v45.56c-0.138-0.002-0.279-0.002-0.423-0.002c-5.061,0-12.064,1.004-16.693,5.787
	c-2.927,3.023-4.393,7.091-4.239,11.758c0.376,11.462,8.386,18.305,21.426,18.305c2.169,0,4.408-0.179,6.849-0.549
	c4.55-0.688,8.701-3.005,11.69-6.529c3.364-3.969,5.142-9.313,5.142-15.461V23.394h25.93v35.06
	c-0.115-0.001-0.232-0.003-0.354-0.003c-3.207,0-7.896,0.431-12.033,2.479c-5.776,2.86-8.959,8.064-8.959,14.654
	c0,6.669,2.896,12.126,8.147,15.366c4.505,2.776,9.724,3.36,13.308,3.36c2.427,0,4.888-0.277,6.748-0.763
	c4.442-1.155,9.438-2.928,12.815-7.313c2.767-3.592,3.998-8.293,3.998-15.234V13.73c0-9.016-7.266-13.732-14.44-13.732
	c-1.328,0-4.233,0.002-7.949,0.003c-6.584,0.002-15.717,0.007-23.125,0.007c-6.612,0-10.696-0.004-12.135-0.01L39.625-0.001
	L39.625-0.001L39.625-0.001z"/>
<rect x="92.5" y="-86.5" fill="none" width="207" height="63"/>
<text transform="matrix(1 0 0 1 92.5 -63.5801)"><tspan x="0" y="0" font-family="'MyriadPro-Regular'" font-size="12"> </tspan><tspan x="0" y="14.4" font-family="'MyriadPro-Regular'" font-size="12">Designed by Pascual Bilotta</tspan></text>
</svg>
