<?xml version="1.0" encoding="UTF-8" standalone="no"?>
<!-- Created with Inkscape (http://www.inkscape.org/) -->

<svg
   xmlns:dc="http://purl.org/dc/elements/1.1/"
   xmlns:cc="http://creativecommons.org/ns#"
   xmlns:rdf="http://www.w3.org/1999/02/22-rdf-syntax-ns#"
   xmlns:svg="http://www.w3.org/2000/svg"
   xmlns="http://www.w3.org/2000/svg"
   xmlns:sodipodi="http://sodipodi.sourceforge.net/DTD/sodipodi-0.dtd"
   xmlns:inkscape="http://www.inkscape.org/namespaces/inkscape"
   id="svg2"
   version="1.1"
   inkscape:version="0.91 r13725"
   xml:space="preserve"
   width="440"
   height="520"
   viewBox="0 0 440 520"
   sodipodi:docname="Birdcalls of India(final).svg"><metadata
     id="metadata8"><rdf:RDF><cc:Work
         rdf:about=""><dc:format>image/svg+xml</dc:format><dc:type
           rdf:resource="http://purl.org/dc/dcmitype/StillImage" /><dc:title></dc:title></cc:Work></rdf:RDF></metadata><defs
     id="defs6"><clipPath
       clipPathUnits="userSpaceOnUse"
       id="clipPath18"><path
         d="M 0,416 352,416 352,0 0,0 0,416 Z"
         id="path20"
         inkscape:connector-curvature="0" /></clipPath><clipPath
       clipPathUnits="userSpaceOnUse"
       id="clipPath30"><path
         d="M 47.969,150.637 C 47.969,79.928 105.291,22.605 176,22.605 l 0,0 c 70.711,0 128.031,57.323 128.031,128.032 l 0,0 c 0,70.711 -57.32,128.032 -128.031,128.032 l 0,0 c -70.709,0 -128.031,-57.321 -128.031,-128.032"
         id="path32"
         inkscape:connector-curvature="0" /></clipPath><clipPath
       clipPathUnits="userSpaceOnUse"
       id="clipPath42"><path
         d="M 0,416 352,416 352,0 0,0 0,416 Z"
         id="path44"
         inkscape:connector-curvature="0" /></clipPath><clipPath
       clipPathUnits="userSpaceOnUse"
       id="clipPath250"><path
         d="M 0,416 352,416 352,0 0,0 0,416 Z"
         id="path252"
         inkscape:connector-curvature="0" /></clipPath><clipPath
       clipPathUnits="userSpaceOnUse"
       id="clipPath258"><path
         d="m 0,416 351.998,0 0,-35.917 L 0,380.083 0,416 Z"
         id="path260"
         inkscape:connector-curvature="0" /></clipPath><clipPath
       clipPathUnits="userSpaceOnUse"
       id="clipPath272"><path
         d="m 284.428,406.173 15.358,0 0,-16.319 -15.358,0 0,16.319 z"
         id="path274"
         inkscape:connector-curvature="0" /></clipPath><clipPath
       clipPathUnits="userSpaceOnUse"
       id="clipPath288"><path
         d="m 324.316,406.367 16.707,0 0,-16.707 -16.707,0 0,16.707 z"
         id="path290"
         inkscape:connector-curvature="0" /></clipPath><clipPath
       clipPathUnits="userSpaceOnUse"
       id="clipPath304"><path
         d="m 244.453,407.39 17.23,0 0,-18.753 -17.23,0 0,18.753 z"
         id="path306"
         inkscape:connector-curvature="0" /></clipPath><clipPath
       clipPathUnits="userSpaceOnUse"
       id="clipPath320"><path
         d="m 272.26,411.708 41.865,0 0,-27.333 -41.865,0 0,27.333 z"
         id="path322"
         inkscape:connector-curvature="0" /></clipPath></defs><sodipodi:namedview
     pagecolor="#ffffff"
     bordercolor="#666666"
     borderopacity="1"
     objecttolerance="10"
     gridtolerance="10"
     guidetolerance="10"
     inkscape:pageopacity="0"
     inkscape:pageshadow="2"
     inkscape:window-width="1855"
     inkscape:window-height="1056"
     id="namedview4"
     showgrid="false"
     inkscape:zoom="1.8057692"
     inkscape:cx="220"
     inkscape:cy="260"
     inkscape:window-x="65"
     inkscape:window-y="24"
     inkscape:window-maximized="1"
     inkscape:current-layer="g10" /><g
     id="g10"
     inkscape:groupmode="layer"
     inkscape:label="Birdcalls of India(final)"
     transform="matrix(1.25,0,0,-1.25,0,520)"><g
       id="g14"
       style="stroke:none"><g
         id="g16"
         clip-path="url(#clipPath18)"
         style="stroke:none"><g
           id="g22"
           transform="translate(304.0313,150.6377)"
           style="stroke:none"><path
             d="m 0,0 c 0,-70.71 -57.32,-128.032 -128.031,-128.032 -70.709,0 -128.032,57.322 -128.032,128.032 0,70.71 57.323,128.031 128.032,128.031 C -57.32,128.031 0,70.71 0,0"
             style="fill:#f3f2b5;fill-opacity:1;fill-rule:nonzero;stroke:none;stroke-opacity:1;stroke-width:12;stroke-miterlimit:4;stroke-dasharray:none"
             id="path24"
             inkscape:connector-curvature="0"
             inkscape:export-filename="/home/yug/projects_active/BirdsOfIndia/icon_128_circled.png"
             inkscape:export-xdpi="34.379978"
             inkscape:export-ydpi="34.379978" /><path
             inkscape:connector-curvature="0"
             id="path4462"
             style="fill:none;fill-opacity:1;fill-rule:nonzero;stroke:none;stroke-opacity:1;stroke-width:12;stroke-miterlimit:4;stroke-dasharray:none"
             d="m 0,0 c 0,-70.71 -57.32,-128.032 -128.031,-128.032 -70.709,0 -128.032,57.322 -128.032,128.032 0,70.71 57.323,128.031 128.032,128.031 C -57.32,128.031 0,70.71 0,0" /></g></g></g><g
       id="g26"><g
         id="g28"
         clip-path="url(#clipPath30)"><g
           id="g34"
           transform="translate(47.9688,211.4229)"><path
             d="m 0,0 27.775,0 c 2.837,0 5.136,-2.299 5.136,-5.136 l 0,-32.575 175.152,-100.944 c 0.978,-0.565 1.744,-1.436 2.175,-2.479 l 17.012,-40.896 c 1.09,-2.619 -0.15,-5.625 -2.77,-6.715 -0.644,-0.268 -1.312,-0.395 -1.97,-0.395 -2.012,0 -3.922,1.19 -4.742,3.164 l -16.344,39.289 -176.213,101.558 c -1.591,0.918 -2.571,2.614 -2.571,4.45 l 0,30.408 -22.64,0"
             style="fill:#a88f8b;fill-opacity:1;fill-rule:nonzero;stroke:none"
             id="path36"
             inkscape:connector-curvature="0" /></g></g></g><g
       id="g38"><g
         id="g40"
         clip-path="url(#clipPath42)"><g
           id="g46"
           transform="translate(118.2598,122.0723)"><path
             d="m 0,0 5.477,-5.477 -33.875,-33.875 c -3.025,-3.023 -7.928,-3.023 -10.953,0 L 0,0 Z"
             style="fill:#84cec5;fill-opacity:1;fill-rule:nonzero;stroke:none"
             id="path48"
             inkscape:connector-curvature="0" /></g><g
           id="g50"
           transform="translate(106.9551,99.8164)"><path
             d="M 0,0 -5.475,5.475 28.398,39.35 c 3.026,3.023 7.928,3.023 10.954,0 L 0,0 Z"
             style="fill:#84cec5;fill-opacity:1;fill-rule:nonzero;stroke:none"
             id="path52"
             inkscape:connector-curvature="0" /></g><g
           id="g54"
           transform="translate(132.127,124.9863)"><path
             d="M 0,0 5.475,-5.475 -28.398,-39.35 c -3.026,-3.025 -7.928,-3.025 -10.954,0 L 0,0 Z"
             style="fill:#8bc53f;fill-opacity:1;fill-rule:nonzero;stroke:none"
             id="path56"
             inkscape:connector-curvature="0" /></g><g
           id="g58"
           transform="translate(120.8223,102.7305)"><path
             d="M 0,0 -5.477,5.475 28.398,39.35 c 3.024,3.025 7.928,3.025 10.952,0.002 L 0,0 Z"
             style="fill:#8bc53f;fill-opacity:1;fill-rule:nonzero;stroke:none"
             id="path60"
             inkscape:connector-curvature="0" /></g><g
           id="g62"
           transform="translate(118.8574,133.6191)"><path
             d="M 0,0 5.475,-5.475 -28.399,-39.35 c -3.025,-3.023 -7.928,-3.023 -10.953,0 L 0,0 Z"
             style="fill:#8bc53f;fill-opacity:1;fill-rule:nonzero;stroke:none"
             id="path64"
             inkscape:connector-curvature="0" /></g><g
           id="g66"
           transform="translate(107.5508,111.3633)"><path
             d="M 0,0 -5.475,5.477 28.4,39.351 c 3.024,3.024 7.928,3.025 10.952,10e-4 L 0,0 Z"
             style="fill:#8bc53f;fill-opacity:1;fill-rule:nonzero;stroke:none"
             id="path68"
             inkscape:connector-curvature="0" /></g><g
           id="g70"
           transform="translate(169.0664,243.8936)"><path
             d="m 0,0 -23.109,0 c -11,0 -19.916,-8.917 -19.916,-19.916 l 0,-43.411 62.941,0 0,43.411 C 19.916,-8.917 11,0 0,0"
             style="fill:#8bc53f;fill-opacity:1;fill-rule:nonzero;stroke:none"
             id="path72"
             inkscape:connector-curvature="0" /></g><g
           id="g74"
           transform="translate(184.4453,221.9238)"><path
             d="m 0,0 c 0,-9.771 -7.92,-17.69 -17.689,-17.69 -9.77,0 -17.69,7.919 -17.69,17.69 0,9.77 7.92,17.689 17.69,17.689 C -7.92,17.689 0,9.77 0,0"
             style="fill:#ffffff;fill-opacity:1;fill-rule:nonzero;stroke:none"
             id="path76"
             inkscape:connector-curvature="0" /></g><path
           d="m 188.982,177.62 -62.941,0 0,19.122 62.941,0 0,-19.122 z"
           style="fill:#404041;fill-opacity:1;fill-rule:nonzero;stroke:none"
           id="path78"
           inkscape:connector-curvature="0" /><g
           id="g80"
           transform="translate(182.3906,221.9238)"><path
             d="m 0,0 c 0,-8.636 -7,-15.637 -15.635,-15.637 -8.635,0 -15.636,7.001 -15.636,15.637 0,8.635 7.001,15.635 15.636,15.635 C -7,15.635 0,8.635 0,0"
             style="fill:#716558;fill-opacity:1;fill-rule:nonzero;stroke:none"
             id="path82"
             inkscape:connector-curvature="0" /></g><g
           id="g84"
           transform="translate(188.9824,216.8887)"><path
             d="M 0,0 0,8.103 C 4.475,8.103 8.104,4.475 8.104,0"
             style="fill:#ee4036;fill-opacity:1;fill-rule:nonzero;stroke:none"
             id="path86"
             inkscape:connector-curvature="0" /></g><g
           id="g88"
           transform="translate(188.9824,216.8887)"><path
             d="m 0,0 0,-5.224 c 2.885,0 5.225,2.339 5.225,5.224"
             style="fill:#f05a28;fill-opacity:1;fill-rule:nonzero;stroke:none"
             id="path90"
             inkscape:connector-curvature="0" /></g><g
           id="g92"
           transform="translate(145.9551,114.1719)"><path
             d="m 0,0 23.111,0 c 11,0 19.916,8.916 19.916,19.914 l 0,59.19 -62.941,0 0,-59.19 C -19.914,8.916 -10.998,0 0,0"
             style="fill:#8bc53f;fill-opacity:1;fill-rule:nonzero;stroke:none"
             id="path94"
             inkscape:connector-curvature="0" /></g><g
           id="g96"
           transform="translate(131.4609,177.499)"><path
             d="m 0,0 19.916,0 0,-43.413 C 19.916,-54.411 11,-63.327 0,-63.327 L 0,0 Z"
             style="fill:#00a551;fill-opacity:1;fill-rule:nonzero;stroke:none"
             id="path98"
             inkscape:connector-curvature="0" /></g><g
           id="g100"
           transform="translate(131.4609,177.499)"><path
             d="m 0,0 6.025,0 0,-13.133 C 6.025,-16.46 3.328,-19.157 0,-19.157 L 0,0 Z"
             style="fill:#ee4036;fill-opacity:1;fill-rule:nonzero;stroke:none"
             id="path102"
             inkscape:connector-curvature="0" /></g><g
           id="g104"
           transform="translate(163.2891,216.375)"><path
             d="m 0,0 c -0.283,0 -0.514,0.23 -0.514,0.514 0,3.68 3.34,6.675 7.448,6.675 0.283,0 0.513,-0.229 0.513,-0.513 0,-0.283 -0.23,-0.513 -0.513,-0.513 -3.539,0 -6.42,-2.534 -6.42,-5.649 C 0.514,0.23 0.283,0 0,0"
             style="fill:#ffffff;fill-opacity:1;fill-rule:nonzero;stroke:none"
             id="path106"
             inkscape:connector-curvature="0" /></g><g
           id="g108"
           transform="translate(144.3418,109.7656)"><path
             d="m 0,0 0,4.406 27.254,0 c 2.432,0 4.404,-1.972 4.404,-4.406 L 0,0 Z"
             style="fill:#716558;fill-opacity:1;fill-rule:nonzero;stroke:none"
             id="path110"
             inkscape:connector-curvature="0" /></g><g
           id="g112"
           transform="translate(186.252,89.6172)"><path
             d="M 0,0 5.477,-5.477 -28.398,-39.35 c -3.024,-3.025 -7.928,-3.025 -10.952,0 L 0,0 Z"
             style="fill:#84cec5;fill-opacity:1;fill-rule:nonzero;stroke:none"
             id="path114"
             inkscape:connector-curvature="0" /></g><g
           id="g116"
           transform="translate(174.9473,67.3613)"><path
             d="M 0,0 -5.475,5.475 28.398,39.35 c 3.026,3.025 7.928,3.025 10.954,0 L 0,0 Z"
             style="fill:#84cec5;fill-opacity:1;fill-rule:nonzero;stroke:none"
             id="path118"
             inkscape:connector-curvature="0" /></g><g
           id="g120"
           transform="translate(200.1191,92.5313)"><path
             d="M 0,0 5.477,-5.475 -28.398,-39.35 c -3.026,-3.023 -7.928,-3.023 -10.954,0 L 0,0 Z"
             style="fill:#8bc53f;fill-opacity:1;fill-rule:nonzero;stroke:none"
             id="path122"
             inkscape:connector-curvature="0" /></g><g
           id="g124"
           transform="translate(188.8125,70.2754)"><path
             d="M 0,0 -5.475,5.477 28.4,39.35 c 3.024,3.025 7.928,3.025 10.952,0 L 0,0 Z"
             style="fill:#8bc53f;fill-opacity:1;fill-rule:nonzero;stroke:none"
             id="path126"
             inkscape:connector-curvature="0" /></g><g
           id="g128"
           transform="translate(186.8496,101.1641)"><path
             d="M 0,0 5.475,-5.475 -28.398,-39.35 c -3.026,-3.023 -7.928,-3.023 -10.954,0 L 0,0 Z"
             style="fill:#8bc53f;fill-opacity:1;fill-rule:nonzero;stroke:none"
             id="path130"
             inkscape:connector-curvature="0" /></g><g
           id="g132"
           transform="translate(175.5449,78.9102)"><path
             d="M 0,0 -5.477,5.475 28.396,39.35 c 3.026,3.023 7.93,3.023 10.954,0 L 0,0 Z"
             style="fill:#8bc53f;fill-opacity:1;fill-rule:nonzero;stroke:none"
             id="path134"
             inkscape:connector-curvature="0" /></g><g
           id="g136"
           transform="translate(237.0586,211.4385)"><path
             d="m 0,0 -23.109,0 c -11,0 -19.916,-8.917 -19.916,-19.916 l 0,-43.411 62.941,0 0,43.411 C 19.916,-8.917 11,0 0,0"
             style="fill:#8bc53f;fill-opacity:1;fill-rule:nonzero;stroke:none"
             id="path138"
             inkscape:connector-curvature="0" /></g><g
           id="g140"
           transform="translate(252.4375,189.4688)"><path
             d="m 0,0 c 0,-9.771 -7.92,-17.69 -17.689,-17.69 -9.77,0 -17.69,7.919 -17.69,17.69 0,9.77 7.92,17.69 17.69,17.69 C -7.92,17.69 0,9.77 0,0"
             style="fill:#ffffff;fill-opacity:1;fill-rule:nonzero;stroke:none"
             id="path142"
             inkscape:connector-curvature="0" /></g><path
           d="m 256.975,145.166 -62.941,0 0,19.122 62.941,0 0,-19.122 z"
           style="fill:#404041;fill-opacity:1;fill-rule:nonzero;stroke:none"
           id="path144"
           inkscape:connector-curvature="0" /><g
           id="g146"
           transform="translate(250.3848,189.4688)"><path
             d="m 0,0 c 0,-8.636 -7.002,-15.636 -15.637,-15.636 -8.634,0 -15.634,7 -15.634,15.636 0,8.635 7,15.636 15.634,15.636 C -7.002,15.636 0,8.635 0,0"
             style="fill:#716558;fill-opacity:1;fill-rule:nonzero;stroke:none"
             id="path148"
             inkscape:connector-curvature="0" /></g><g
           id="g150"
           transform="translate(256.9746,184.4336)"><path
             d="M 0,0 0,8.103 C 4.477,8.103 8.104,4.476 8.104,0"
             style="fill:#ee4036;fill-opacity:1;fill-rule:nonzero;stroke:none"
             id="path152"
             inkscape:connector-curvature="0" /></g><g
           id="g154"
           transform="translate(256.9746,184.4336)"><path
             d="m 0,0 0,-5.224 c 2.885,0 5.225,2.339 5.225,5.224"
             style="fill:#f05a28;fill-opacity:1;fill-rule:nonzero;stroke:none"
             id="path156"
             inkscape:connector-curvature="0" /></g><g
           id="g158"
           transform="translate(213.9492,81.7168)"><path
             d="m 0,0 23.109,0 c 11,0 19.916,8.916 19.916,19.916 l 0,59.188 -62.941,0 0,-59.188 C -19.916,8.916 -11,0 0,0"
             style="fill:#8bc53f;fill-opacity:1;fill-rule:nonzero;stroke:none"
             id="path160"
             inkscape:connector-curvature="0" /></g><g
           id="g162"
           transform="translate(199.4531,145.0449)"><path
             d="m 0,0 19.916,0 0,-43.412 C 19.916,-54.412 11,-63.328 0,-63.328 L 0,0 Z"
             style="fill:#00a551;fill-opacity:1;fill-rule:nonzero;stroke:none"
             id="path164"
             inkscape:connector-curvature="0" /></g><g
           id="g166"
           transform="translate(199.4531,145.0449)"><path
             d="m 0,0 6.025,0 0,-13.133 c 0,-3.328 -2.697,-6.025 -6.025,-6.025 L 0,0 Z"
             style="fill:#ee4036;fill-opacity:1;fill-rule:nonzero;stroke:none"
             id="path168"
             inkscape:connector-curvature="0" /></g><g
           id="g170"
           transform="translate(246.8516,188.7725)"><path
             d="M 0,0 C -0.148,0 -0.297,0.065 -0.398,0.189 -4.402,5.112 -7.594,7.879 -8.348,7.978 -8.561,7.864 -8.83,7.913 -8.986,8.106 -9.166,8.327 -9.133,8.65 -8.912,8.83 -8.455,9.201 -7.688,9.229 -5.189,6.928 -3.551,5.417 -1.566,3.254 0.398,0.838 0.578,0.618 0.545,0.294 0.324,0.116 0.229,0.038 0.115,0 0,0"
             style="fill:#ffffff;fill-opacity:1;fill-rule:nonzero;stroke:none"
             id="path172"
             inkscape:connector-curvature="0" /></g><g
           id="g174"
           transform="translate(212.334,77.3125)"><path
             d="m 0,0 0,4.404 27.254,0 c 2.434,0 4.404,-1.972 4.404,-4.404 L 0,0 Z"
             style="fill:#716558;fill-opacity:1;fill-rule:nonzero;stroke:none"
             id="path176"
             inkscape:connector-curvature="0" /></g><g
           id="g178"
           transform="translate(232.502,82.2559)"><path
             d="m 0,0 c 0,-2.396 -1.943,-4.338 -4.338,-4.338 -2.396,0 -4.338,1.942 -4.338,4.338 0,2.395 1.942,4.336 4.338,4.336 C -1.943,4.336 0,2.395 0,0"
             style="fill:#716558;fill-opacity:1;fill-rule:nonzero;stroke:none"
             id="path180"
             inkscape:connector-curvature="0" /></g></g></g><g
       id="g4464"
       style="fill:none;stroke:none"
       inkscape:export-filename="/home/yug/projects_active/BirdsOfIndia/icon_128.png"
       inkscape:export-xdpi="34.379978"
       inkscape:export-ydpi="34.379978"><g
         clip-path="url(#clipPath18)"
         id="g4466"
         style="fill:none;stroke:none"><g
           transform="translate(304.0313,150.6377)"
           id="g4468"
           style="fill:none;stroke:none"><path
             inkscape:connector-curvature="0"
             id="path4470"
             style="fill:none;fill-opacity:1;fill-rule:nonzero;stroke:none;stroke-opacity:1;stroke-width:12;stroke-miterlimit:4;stroke-dasharray:none"
             d="m 0,0 c 0,-70.71 -57.32,-128.032 -128.031,-128.032 -70.709,0 -128.032,57.322 -128.032,128.032 0,70.71 57.323,128.031 128.032,128.031 C -57.32,128.031 0,70.71 0,0" /><path
             d="m 0,0 c 0,-70.71 -57.32,-128.032 -128.031,-128.032 -70.709,0 -128.032,57.322 -128.032,128.032 0,70.71 57.323,128.031 128.032,128.031 C -57.32,128.031 0,70.71 0,0"
             style="fill:none;fill-opacity:1;fill-rule:nonzero;stroke:none;stroke-opacity:1;stroke-width:12;stroke-miterlimit:4;stroke-dasharray:none"
             id="path4472"
             inkscape:connector-curvature="0" /></g></g></g></g></svg>