<?xml version="1.0" encoding="utf-8"?>
<!-- Generator: Adobe Illustrator 15.0.0, SVG Export Plug-In . SVG Version: 6.00 Build 0)  -->
<!DOCTYPE svg PUBLIC "-//W3C//DTD SVG 1.1//EN" "http://www.w3.org/Graphics/SVG/1.1/DTD/svg11.dtd">
<svg version="1.1" id="Layer_1" xmlns="http://www.w3.org/2000/svg" xmlns:xlink="http://www.w3.org/1999/xlink" x="0px" y="0px"
	 width="100px" height="100px" viewBox="0 0 100 100" enable-background="new 0 0 100 100" xml:space="preserve">
<g>
	<path d="M90.2,41.3L54.6,6.5c-2-1.9-5.2-2-7.2-0.1L10.6,41.3c-1.5,1.5-2,3.7-1.3,5.7c0.8,2,2.7,3.3,4.8,3.3h6v38
		c0,3.8,3.1,6.8,6.8,6.8h12.5V63.5c0-3.8,3.1-6.8,6.8-6.8H53.6c3.801,0,6.801,3.1,6.801,6.8V95h13.3c3.8,0,6.8-3.1,6.8-6.8v-38h6
		c2.1,0,4-1.3,4.8-3.2C92.2,45,91.7,42.8,90.2,41.3z"/>
</g>
<rect x="-408.5" y="-79.5" fill="none" width="425" height="170.465"/>
<text transform="matrix(1 0 0 1 -408.5 -70.98)" font-family="'MyriadPro-Regular'" font-size="12">Designed by Tom Walsh</text>
</svg>
